<svg width="114" height="48" viewBox="0 0 114 48" fill="none" xmlns="http://www.w3.org/2000/svg">
<path fill-rule="evenodd" clip-rule="evenodd" d="M78.6575 39.3427C79.2125 40.7078 79.9616 42.0014 80.9456 43.1826C83.5815 46.3468 87.2015 48.0001 91.2964 48.0001C93.4282 48.0001 95.6 47.5789 97.5711 46.5329C99.3829 47.5744 101.399 48.0001 103.362 48.0001C106.099 48.0001 109.426 47.1621 111.674 44.1863C113.426 41.8778 114 39.1909 114 36.7118V20.6136C114 17.9302 113.093 15.334 111.131 13.2564C108.907 10.8222 105.951 9.96338 103.214 9.96338C100.569 9.96338 97.9505 10.7895 95.828 12.6939C93.6138 10.7233 90.9094 9.96338 88.2922 9.96338C85.6388 9.96338 82.8107 10.7089 80.5217 12.8173C79.8207 13.4622 79.2499 14.1669 78.7934 14.9098C78.8643 15.5182 78.8997 16.1598 78.8997 16.8345C78.8997 18.2649 78.7195 19.5246 78.359 20.6136C78.3566 20.6209 78.3542 20.6282 78.3517 20.6355C78.2273 21.0082 78.0816 21.3608 77.9148 21.6934C77.7164 22.079 77.5014 22.4378 77.27 22.7696L77.3007 29.8374C77.7943 30.4691 78.1939 31.1808 78.4995 31.9725C78.5033 31.9825 78.5072 31.9925 78.511 32.0025C79 33.2824 79.2445 34.7704 79.2445 36.4664C79.2445 37.6006 79.0488 38.5594 78.6575 39.3427ZM91.7888 17.3253C90.9024 16.5073 89.7368 16.0983 88.2922 16.0983C86.782 16.0983 85.5836 16.5073 84.6971 17.3253C83.8435 18.1106 83.4167 19.2067 83.4167 20.6136L83.4659 31.951C83.4988 35.0921 84.2375 37.5297 85.6821 39.2639C87.1267 40.998 88.9981 41.8651 91.2964 41.8651C92.0023 41.8651 92.6542 41.7932 93.2518 41.6492C94.0622 41.4541 94.773 41.1267 95.3843 40.667C95.5382 40.5513 95.6859 40.4271 95.8272 40.2946C95.8948 40.2329 95.9605 40.1698 96.0241 40.1052C96.8779 39.2391 97.3735 38.108 97.5112 36.7118C97.5376 36.4434 97.5508 36.1653 97.5508 35.8774H98.4373V36.7118C98.4373 38.0534 98.7488 39.1682 99.3717 40.0562C99.478 40.2077 99.5933 40.3526 99.7177 40.4909C100.396 41.192 101.267 41.6248 102.33 41.7894C102.656 41.8399 103 41.8651 103.362 41.8651C104.938 41.8651 106.071 41.407 106.76 40.4909C107.482 39.542 107.844 38.2823 107.844 36.7118V20.6136C107.844 19.3376 107.433 18.2742 106.612 17.4235C105.824 16.54 104.692 16.0983 103.214 16.0983C101.803 16.0983 100.653 16.54 99.767 17.4235C99.4824 17.6966 99.2435 17.9916 99.0502 18.3086C98.6416 18.9789 98.4373 19.7473 98.4373 20.6136V25.3621C98.4373 25.395 98.4372 25.4277 98.4369 25.4603C98.4274 26.5286 98.2634 27.412 97.9448 28.1105C97.8433 28.323 97.712 28.5026 97.5508 28.6494C97.1908 28.9773 96.6819 29.1412 96.0241 29.1412C94.2149 29.1412 93.2506 28.0708 93.1312 25.93C93.1312 25.93 93.1275 25.8594 93.126 25.8237C93.121 25.7057 93.1185 25.5845 93.1185 25.4603V20.6136C93.1185 19.6846 92.9252 18.891 92.5387 18.233C92.3399 17.8946 92.0899 17.592 91.7888 17.3253Z" fill="#222222" style="fill:#222222;fill:color(display-p3 0.1333 0.1333 0.1333);fill-opacity:1;"/>
<path fill-rule="evenodd" clip-rule="evenodd" d="M65.4756 44.6203L65.4412 44.5836C65.0913 44.2109 64.7733 43.8237 64.4856 43.424C64.1148 43.9587 63.6816 44.4723 63.1783 44.9559C60.9056 47.14 58.0538 47.9998 55.2608 47.9998C52.4919 47.9998 49.5406 47.2094 47.1957 44.9559C44.7089 42.5662 43.9338 39.4472 43.9338 36.6624V29.7422C43.9338 28.6395 43.9772 27.538 44.0799 26.4539L44.2128 26.1103C44.4754 25.3905 44.6888 24.6052 44.853 23.7545C45.0171 22.9038 45.0992 22.2167 45.0992 21.6932C45.0992 21.611 45.0976 21.5295 45.0943 21.4486C45.3503 20.6908 45.6564 19.9586 46.0197 19.2596C44.2421 17.0297 43.5452 14.391 43.4461 11.8723L43.4438 11.8134L43.4426 11.7545C43.385 8.88384 44.1881 5.93915 46.3586 3.54425C48.5708 1.10344 51.5165 0 54.5714 0H67.1296C71.6411 0 75.9395 1.1045 79.4592 3.86813C83.5929 7.11387 85.0558 11.9409 85.0558 16.8343C85.0558 16.8994 85.0555 16.9645 85.055 17.0296C84.9305 17.1213 84.8113 17.2198 84.6972 17.3251C83.8436 18.1104 83.4168 19.2065 83.4168 20.6134L83.4333 24.4122C83.4292 24.4204 83.425 24.4286 83.4209 24.4368L83.4069 24.4648L83.3925 24.4927C83.0753 25.1093 82.7184 25.707 82.3193 26.2786C82.7453 26.8452 83.1206 27.4334 83.449 28.0394L83.466 31.9508C83.4839 33.6656 83.7122 35.1707 84.1509 36.4661C84.428 37.2844 84.789 38.0191 85.2339 38.6701C84.8829 40.9188 83.9326 43.1969 81.9674 45.0247L81.9619 45.0299C79.572 47.2474 76.5959 47.9998 73.8273 47.9998C70.8731 47.9998 67.8489 47.0671 65.5106 44.6564L65.4756 44.6203ZM77.7118 30.4152C77.5608 30.1814 77.3987 29.9571 77.2254 29.7422C76.1895 28.426 74.9289 27.4762 73.4437 26.8928C73.0699 26.746 72.6819 26.6224 72.2797 26.522C72.2539 26.5156 72.228 26.5092 72.2021 26.503V25.8649C72.2555 25.8587 72.3088 25.8518 72.362 25.8442C72.615 25.8084 72.8655 25.7581 73.1135 25.6934C73.8525 25.5007 74.5689 25.1798 75.2627 24.7309C75.3096 24.7005 75.3565 24.6695 75.4032 24.638C76.301 24.0318 77.0583 23.1966 77.6751 22.1322C77.7575 21.9899 77.8374 21.8436 77.9148 21.6932C78.5715 20.3844 78.8998 18.7648 78.8998 16.8343C78.8998 13.1042 77.8164 10.3885 75.6494 8.68709C73.4825 6.98566 70.6426 6.13495 67.1296 6.13495H54.5714C53.0611 6.13495 51.8463 6.6421 50.927 7.65642C50.0077 8.67073 49.5645 9.99588 49.5973 11.6319C49.636 12.6148 49.8114 13.4786 50.1235 14.2231C50.3412 14.7425 50.6255 15.2039 50.9763 15.6073C51.7272 16.4112 52.7021 16.8745 53.9008 16.9974C54.117 17.0195 54.3405 17.0306 54.5714 17.0306H55.3593L55.6056 17.9631C55.5227 18.0036 55.4407 18.0453 55.3593 18.0884C55.0885 18.232 54.8258 18.3905 54.5714 18.5638C54.3344 18.7253 54.1046 18.8996 53.8819 19.0869C53.0204 19.8114 52.2652 20.7292 51.6165 21.8404C51.4657 22.107 51.3261 22.392 51.1976 22.6952C50.4591 24.4388 50.0898 26.7878 50.0898 29.7422V36.6624C50.0898 38.3639 50.5494 39.6563 51.4687 40.5397C52.388 41.4232 53.6521 41.8649 55.2608 41.8649C56.7711 41.8649 57.9859 41.4232 58.9052 40.5397C59.8245 39.6563 60.2841 38.3639 60.2841 36.6624V28.8097H61.2691C61.4871 28.8097 61.7005 28.8161 61.9093 28.8287C62.6493 28.8737 63.3315 28.9982 63.9561 29.2024C64.7448 29.4601 65.4414 29.8448 66.0461 30.3564C66.13 30.4274 66.212 30.5008 66.2923 30.5766C66.3425 30.6214 66.3917 30.6675 66.4401 30.7148C66.7027 30.9719 66.9393 31.2659 67.15 31.5968C67.8918 32.7619 68.3117 34.385 68.41 36.4661C68.4757 38.0694 68.9846 39.3782 69.9367 40.3925C70.8888 41.3741 72.1857 41.8649 73.8273 41.8649C75.5017 41.8649 76.815 41.4232 77.7671 40.5397C78.7521 39.6236 79.2445 38.2657 79.2445 36.4661C79.2445 34.0145 78.7336 31.9975 77.7118 30.4152ZM64.5725 21.3748C65.9515 21.3748 66.9529 21.0639 67.5767 20.4423C68.132 19.8888 68.4401 19.1409 68.5011 18.1985C68.5086 18.0823 68.5124 17.9631 68.5124 17.841C68.5124 16.6958 68.2005 15.8124 67.5767 15.1907C66.9529 14.5691 65.9515 14.2582 64.5725 14.2582L61.9018 14.2644C61.7343 14.2644 61.5792 14.2697 61.4364 14.2802C60.9635 14.3152 60.6261 14.4081 60.4243 14.5589C60.2878 14.6609 60.1868 14.8381 60.1212 15.0904C60.0606 15.3235 60.0304 15.6208 60.0304 15.9822V19.6141C60.0304 20.1629 60.1067 20.5691 60.2594 20.8326C60.2936 20.8917 60.3317 20.9436 60.3736 20.9883C60.3899 21.0057 60.4068 21.0221 60.4243 21.0374C60.6003 21.1908 60.8794 21.2928 61.2616 21.3435C61.4499 21.3684 61.6633 21.3809 61.9018 21.3809L64.5725 21.3748Z" fill="#222222" style="fill:#222222;fill:color(display-p3 0.1333 0.1333 0.1333);fill-opacity:1;"/>
<path fill-rule="evenodd" clip-rule="evenodd" d="M13.4821 39.9996C14.6969 41.243 16.2564 41.8646 18.1606 41.8646C19.3103 41.8646 20.2922 41.6341 21.1065 41.1731C21.3834 41.0164 21.6409 40.833 21.879 40.6229C22.1205 40.4098 22.3421 40.1694 22.5437 39.9014C22.9569 39.3524 23.321 38.7399 23.636 38.0641C23.6457 38.0434 23.6553 38.0227 23.6648 38.0018C24.0683 37.1228 24.3897 36.1378 24.6288 35.0468C24.6398 34.9965 24.6507 34.946 24.6614 34.8953H25.1538C25.1645 34.932 25.1752 34.9686 25.186 35.005C25.6474 36.5636 26.2138 37.8412 26.8852 38.8378C27.2602 39.3946 27.6681 39.8637 28.1087 40.245C28.4123 40.5011 28.7391 40.7267 29.0889 40.9221C30.2142 41.5504 31.5783 41.8646 33.1812 41.8646C34.396 41.8646 35.463 41.5538 36.3823 40.9321C36.5336 40.8245 36.6817 40.7119 36.8267 40.5946C37.4271 40.1085 37.9742 39.5389 38.468 38.8859C38.507 38.8343 38.5457 38.7822 38.5841 38.7295C38.6557 38.6312 38.7262 38.531 38.7955 38.4291C39.5178 37.4148 40.1416 36.3023 40.6669 35.0917C40.8481 34.688 41.0224 34.2878 41.1897 33.8911C41.2061 33.8524 41.2223 33.8137 41.2385 33.775C41.5677 32.9897 41.8696 32.218 42.1443 31.4598L44.2128 26.1101C44.4754 25.3903 44.6888 24.605 44.853 23.7543C45.0171 22.9036 45.0992 22.2164 45.0992 21.6929C45.0992 20.2533 44.5903 19.0099 43.5725 17.9629C42.5876 16.8831 41.2907 16.3433 39.6819 16.3433C38.6313 16.3433 37.6628 16.5723 36.7763 17.0304C36.3513 17.2584 35.967 17.5311 35.6234 17.8484C35.2768 18.1684 34.9717 18.5337 34.7079 18.9445C34.2154 19.7297 34.002 20.6459 34.0677 21.6929C34.1334 22.74 35.0068 24.0513 35.3969 24.5395C36.2967 25.6657 36.6254 27.2054 36.4368 27.8634C36.3333 28.2243 36.1619 28.522 35.9226 28.7566C35.9129 28.766 35.9032 28.7753 35.8933 28.7846C35.6819 28.9827 35.4198 29.1338 35.1071 29.2377C34.2206 29.4994 33.4983 29.3195 32.9402 28.6978C32.8313 28.5765 32.728 28.4527 32.6304 28.3265C32.2885 27.8844 32.0155 27.4117 31.8115 26.9086C31.8085 26.9011 31.8055 26.8935 31.8024 26.886C31.7694 26.8036 31.7383 26.7204 31.709 26.6364C30.0934 21.7297 31.2017 24.0966 29.5861 19.1899C29.3555 18.5003 29.029 17.9207 28.6067 17.4509C28.2474 17.0513 27.8187 16.7311 27.3207 16.4905C26.2373 15.967 25.0389 15.9343 23.7256 16.3923C22.5537 16.7726 21.7211 17.4347 21.2279 18.3786C21.127 18.5718 21.0403 18.7768 20.9678 18.9935C20.5738 20.2369 20.5902 21.4966 21.017 22.7727C21.1353 23.1262 21.5459 23.7727 21.5459 23.7727C21.5459 23.7727 21.8298 24.2157 21.9172 24.5078C21.9207 24.5197 21.9243 24.5315 21.9278 24.5433C22.0245 24.8692 22.1056 25.1746 22.171 25.4596C22.1851 25.5211 22.1985 25.5817 22.2111 25.6413C22.3911 26.4894 22.4231 27.1446 22.3071 27.607C22.1429 28.3596 21.7161 28.8503 21.0266 29.0794C20.9752 29.0958 20.9244 29.1108 20.8743 29.1243C20.1242 29.3274 19.5183 29.2143 19.0567 28.7849C19.0403 28.7685 19.0239 28.7516 19.0075 28.7342C18.6201 28.3232 18.2429 27.6275 17.8759 26.647C17.8564 26.5949 17.837 26.5421 17.8175 26.4885C17.7746 26.3698 17.7317 26.2471 17.689 26.1206C17.6688 26.0607 17.6487 25.9999 17.6285 25.9383L15.0088 19.1899C14.9315 18.9588 14.8434 18.7401 14.7446 18.5337C14.2977 17.6003 13.6306 16.9192 12.7434 16.4905C11.6599 15.967 10.4616 15.9343 9.14827 16.3923C7.7365 16.8504 6.83362 17.7175 6.43964 18.9935C6.04566 20.2696 6.06208 21.5293 6.48889 22.7727L10.2317 33.8647C11.2167 36.7113 12.3001 38.7563 13.4821 39.9996ZM0.658266 24.7408L4.40435 35.8424L4.41203 35.8646C5.49834 39.0041 6.93135 42.0289 9.01313 44.2189L9.04211 44.2494L9.0715 44.2794C11.5597 46.8262 14.767 47.9996 18.1606 47.9996C20.6751 47.9996 23.1798 47.3346 25.2684 45.7804C27.6768 47.3797 30.4446 47.9996 33.1812 47.9996C35.5082 47.9996 37.8045 47.3844 39.8389 46.0086L39.9002 45.9672L39.9604 45.9243C41.5056 44.8244 42.7974 43.4672 43.8533 41.9267C44.8146 40.5688 45.6276 39.1094 46.3013 37.5633C46.9004 36.2266 47.4382 34.9076 47.9114 33.6068L49.9781 28.2615L49.9981 28.2067C50.0504 28.0633 50.101 27.9192 50.15 27.7744C50.2193 26.6995 50.3483 25.7226 50.537 24.8436C50.7122 24.0278 50.9389 23.2964 51.2171 22.6494C51.2414 22.3297 51.2552 22.0097 51.2552 21.6929C51.2552 18.6698 50.1326 15.9279 48.0605 13.7631C45.7941 11.3208 42.8032 10.2083 39.6819 10.2083C37.6981 10.2083 35.7505 10.6498 33.9426 11.584L33.9 11.6061L33.8578 11.6287C33.3422 11.9054 32.8529 12.2161 32.3914 12.5589C31.6987 11.9412 30.9048 11.4043 30.0064 10.9702C27.2398 9.63337 24.3381 9.69418 21.7548 10.5801C20.3567 11.0426 19.0712 11.755 17.9838 12.7137C17.2519 12.0307 16.4017 11.4401 15.4291 10.9702C12.6624 9.63334 9.76062 9.69418 7.17724 10.5802C4.13002 11.5884 1.60215 13.8006 0.555884 17.1893C-0.211908 19.6761 -0.190435 22.2566 0.658266 24.7408Z" fill="#222222" style="fill:#222222;fill:color(display-p3 0.1333 0.1333 0.1333);fill-opacity:1;"/>
</svg>
